<svg width="207" height="32" viewBox="0 0 207 32" fill="none" xmlns="http://www.w3.org/2000/svg">
<path fillRule="evenodd" clipRule="evenodd" d="M121.596 16.0649C121.596 13.9865 121.64 12.2255 121.726 10.7821C121.842 9.33874 122.044 8.15516 122.332 7.23139C122.649 6.30762 123.082 5.64366 123.63 5.23951C124.207 4.80649 124.957 4.58998 125.879 4.58998C126.802 4.58998 127.538 4.80649 128.086 5.23951C128.663 5.64366 129.095 6.30762 129.384 7.23139C129.701 8.15516 129.903 9.33874 129.989 10.7821C130.105 12.2255 130.163 13.9865 130.163 16.0649C130.163 18.1434 130.105 19.9188 129.989 21.3911C129.903 22.8344 129.701 24.018 129.384 24.9418C129.095 25.8367 128.663 26.5007 128.086 26.9337C127.538 27.3378 126.802 27.5399 125.879 27.5399C124.957 27.5399 124.207 27.3378 123.63 26.9337C123.082 26.5007 122.649 25.8367 122.332 24.9418C122.044 24.018 121.842 22.8344 121.726 21.3911C121.64 19.9188 121.596 18.1434 121.596 16.0649ZM115.367 16.0649C115.367 18.4321 115.468 20.5972 115.669 22.5602C115.9 24.5232 116.376 26.212 117.097 27.6265C117.847 29.041 118.914 30.1236 120.299 30.8741C121.683 31.6247 123.543 32 125.879 32C128.216 32 130.076 31.6247 131.46 30.8741C132.845 30.1236 133.898 29.041 134.619 27.6265C135.368 26.212 135.844 24.5232 136.046 22.5602C136.277 20.5972 136.392 18.4321 136.392 16.0649C136.392 13.7266 136.277 11.576 136.046 9.61298C135.844 7.6211 135.368 5.9179 134.619 4.50338C133.898 3.08886 132.845 1.99188 131.46 1.21245C130.076 0.404149 128.216 0 125.879 0C123.543 0 121.683 0.404149 120.299 1.21245C118.914 1.99188 117.847 3.08886 117.097 4.50338C116.376 5.9179 115.9 7.6211 115.669 9.61298C115.468 11.576 115.367 13.7266 115.367 16.0649ZM81.3289 0.606224L86.953 31.5237H93.9184L97.3794 9.09336H97.4659L100.927 31.5237H107.892L113.516 0.606224H107.546L104.128 23.4695H104.042L100.408 0.606224H94.4375L90.8034 23.4695H90.7169L87.2991 0.606224H81.3289ZM146.285 31.5237H140.055V0.606224H151.563C154.159 0.606224 156.178 1.27018 157.62 2.5981C159.062 3.89716 159.783 5.88904 159.783 8.57374C159.783 10.6522 159.365 12.3554 158.528 13.6833C157.692 14.9824 156.394 15.8196 154.635 16.1948V16.2815C156.192 16.5124 157.331 17.0176 158.053 17.797C158.774 18.5764 159.221 19.8322 159.394 21.5643C159.451 22.1416 159.495 22.7767 159.523 23.4695C159.552 24.1335 159.581 24.8841 159.61 25.7212C159.668 27.3667 159.754 28.6224 159.87 29.4885C160.043 30.3545 160.418 30.9463 160.994 31.2638V31.5237H154.245C153.928 31.0906 153.726 30.5999 153.64 30.0514C153.553 29.474 153.496 28.8823 153.467 28.276L153.294 22.3437C153.236 21.1312 152.933 20.1786 152.385 19.4858C151.837 18.7929 150.914 18.4465 149.616 18.4465H146.285V31.5237ZM146.285 5.19621V14.1164H148.881C150.381 14.1164 151.534 13.77 152.342 13.0771C153.149 12.3554 153.553 11.1574 153.553 9.48308C153.553 6.62516 152.111 5.19621 149.227 5.19621H146.285ZM170.325 0.606224H164.095V31.5237H170.325V22.3437L172.618 18.8363L178.977 31.5237H185.986L176.641 13.8566L185.034 0.606224H178.285L170.411 12.9905H170.325V0.606224ZM186.12 21.8674H192.35V22.7767C192.35 23.4984 192.408 24.1624 192.523 24.7686C192.639 25.3459 192.855 25.8367 193.172 26.2408C193.489 26.645 193.908 26.9625 194.427 27.1935C194.975 27.4244 195.653 27.5399 196.46 27.5399C197.412 27.5399 198.263 27.2368 199.013 26.6306C199.791 25.9955 200.181 25.0284 200.181 23.7293C200.181 23.0365 200.08 22.4447 199.878 21.954C199.705 21.4344 199.402 20.9725 198.969 20.5683C198.537 20.1642 197.96 19.8033 197.239 19.4858C196.547 19.1394 195.681 18.7929 194.643 18.4465C193.259 17.9846 192.062 17.4795 191.052 16.931C190.043 16.3825 189.192 15.7474 188.5 15.0257C187.836 14.2751 187.346 13.4235 187.029 12.4709C186.712 11.4894 186.553 10.3635 186.553 9.09336C186.553 6.03337 187.404 3.75282 189.105 2.25169C190.807 0.750563 193.143 0 196.114 0C197.498 0 198.768 0.158774 199.921 0.476321C201.104 0.764998 202.113 1.25575 202.95 1.94858C203.815 2.61254 204.478 3.47857 204.94 4.54668C205.43 5.58592 205.675 6.84167 205.675 8.31393V9.17997H199.705C199.705 7.70771 199.445 6.58186 198.926 5.80243C198.407 4.99413 197.542 4.58998 196.33 4.58998C195.638 4.58998 195.061 4.69102 194.6 4.8931C194.138 5.09517 193.763 5.36941 193.475 5.71583C193.215 6.03337 193.028 6.40866 192.913 6.84167C192.826 7.27469 192.783 7.72214 192.783 8.18403C192.783 9.13666 192.985 9.94496 193.389 10.6089C193.792 11.244 194.658 11.8358 195.984 12.3843L200.786 14.4628C201.969 14.9824 202.935 15.5309 203.685 16.1082C204.435 16.6567 205.026 17.263 205.459 17.9269C205.92 18.562 206.238 19.2693 206.411 20.0487C206.584 20.8281 206.67 21.6942 206.67 22.6468C206.67 25.9089 205.718 28.2905 203.815 29.7916C201.94 31.2638 199.316 32 195.941 32C192.422 32 189.899 31.235 188.37 29.705C186.87 28.175 186.12 25.981 186.12 23.1231V21.8674ZM0 0.60625V31.5237H6.22986V17.797H13.498V31.5237H19.7279V0.60625H13.498V12.4276H6.22986V0.60625H0ZM39.9685 21.3478L35.3394 15.069C37.1564 13.77 38.4975 12.4998 39.3628 11.2585C40.2569 10.0172 40.7039 8.61707 40.7039 7.05821C40.7039 6.16331 40.5453 5.32614 40.2281 4.54671C39.9396 3.76728 39.4782 3.08888 38.8436 2.51153C38.2091 1.9053 37.4016 1.44342 36.4209 1.12587C35.4691 0.779457 34.3299 0.60625 33.0032 0.60625C31.8495 0.60625 30.7823 0.765024 29.8017 1.08257C28.8499 1.37125 28.0279 1.80427 27.3357 2.38162C26.6435 2.93011 26.0955 3.6085 25.6917 4.4168C25.3168 5.19623 25.1293 6.09114 25.1293 7.10151C25.1293 7.53453 25.1582 7.95311 25.2158 8.35726C25.2735 8.76141 25.3745 9.17999 25.5187 9.61301C25.6629 10.046 25.8648 10.5079 26.1244 10.9987C26.4128 11.4894 26.7733 12.0523 27.2059 12.6874L28.2875 14.2896C26.3551 15.502 24.8265 16.8444 23.7016 18.3167C22.6056 19.7601 22.0576 21.3911 22.0576 23.2098C22.0576 24.0758 22.1874 25.0284 22.447 26.0677C22.7066 27.1069 23.1825 28.074 23.8747 28.9689C24.5669 29.8638 25.5331 30.5999 26.7733 31.1773C28.0135 31.7258 29.5998 32 31.5322 32C33.0897 32 34.5174 31.7546 35.8152 31.2639C37.142 30.7731 38.1947 30.0659 38.9734 29.1421L40.7039 31.5237H47.3232L43.2565 25.8079C44.1794 24.4799 44.9293 23.051 45.5061 21.521C46.1118 19.9621 46.4147 18.3455 46.4147 16.6712H41.0501C41.0501 17.3352 40.9491 18.1146 40.7472 19.0095C40.5453 19.9044 40.2857 20.6838 39.9685 21.3478ZM31.1861 17.9702L36.3777 25.3315C35.3394 26.6306 33.9982 27.2801 32.3542 27.2801C31.662 27.2801 31.0419 27.1646 30.4939 26.9337C29.9459 26.6739 29.4844 26.3563 29.1095 25.9811C28.7634 25.5769 28.4894 25.1295 28.2875 24.6387C28.1145 24.148 28.0279 23.6716 28.0279 23.2098C28.0279 22.2571 28.2442 21.3766 28.6769 20.5683C29.1383 19.7601 29.9748 18.894 31.1861 17.9702ZM30.2343 6.9283C30.2343 6.12 30.4795 5.49935 30.9698 5.06633C31.489 4.63331 32.1235 4.4168 32.8734 4.4168C33.6809 4.4168 34.3299 4.64775 34.8202 5.10963C35.3394 5.54265 35.5989 6.17774 35.5989 7.01491C35.5989 7.56339 35.4403 8.12632 35.123 8.70368C34.8346 9.25216 34.3443 9.81509 33.6521 10.3924L32.5273 11.3451L31.7918 10.3058C30.7535 8.92018 30.2343 7.79434 30.2343 6.9283ZM49.0087 31.5237V0.60625H55.2386V12.4276H62.5068V0.60625H68.7366V31.5237H62.5068V17.797H55.2386V31.5237H49.0087Z" fill="black"/>
</svg>
